<?xml version="1.0" encoding="UTF-8" standalone="no"?>
<svg width="101px" height="217px" viewBox="0 0 101 217" version="1.1" xmlns="http://www.w3.org/2000/svg" xmlns:xlink="http://www.w3.org/1999/xlink">
    <!-- Generator: Sketch 39 (31667) - http://www.bohemiancoding.com/sketch -->
    <title>Group</title>
    <desc>Created with Sketch.</desc>
    <defs></defs>
    <g id="Translation-services" stroke="none" stroke-width="1" fill="none" fill-rule="evenodd">
        <g id="Group" fill="#000000">
            <path d="M48,147 L48,205 C48,212 42,217 36,217 L36,217 C29,217 23,212 23,205 L23,72 L20,72 L20,131 C20,141 0,144 0,131 L0,61 C0,56 4,48 9,48 L92,48 C97,48 101,56 101,61 L101,131 C101,144 81,141 81,131 L81,72 L78,72 L78,205 C78,212 72,217 65,217 L65,217 C59,217 53,212 53,205 L53,147 L48,147 L48,147 Z" id="Shape"></path>
            <circle id="Oval" cx="50" cy="22" r="22"></circle>
        </g>
    </g>
</svg>